<svg width="224" height="224" viewBox="0 0 224 224" fill="none" xmlns="http://www.w3.org/2000/svg">
<path d="M111.494 209.814L110.92 209.88C109.667 209.35 102.374 204.105 100.79 203.015C92.3662 197.189 83.9884 191.296 75.6572 185.339C55.6095 170.995 37.6652 158.554 37.4925 131.322L37.4995 99.2538C37.4904 95.3726 37.224 86.1532 37.701 82.3356C37.8515 81.1302 44.0089 75.4605 45.4255 74.0235L61.1343 58.2369L90.823 28.3579C91.2295 33.4451 90.9682 41.5697 90.9656 46.9246L90.9773 81.7903L67.4731 81.7971C64.3435 81.792 58.0365 81.945 55.1344 81.6248L55.1248 116.324C55.131 122.716 54.89 129.376 55.3492 135.698C55.9642 142.565 59.7439 149.683 64.7167 154.42C76.6087 165.75 90.9464 174.301 104.311 183.737C106.49 185.275 108.86 186.821 110.889 188.501C111.554 192.517 110.488 207.679 111.494 209.814Z" fill="#191559"/>
<path d="M191.044 47.7415C192.933 47.5671 204.06 47.2835 204.897 48.534C204.547 49.8322 202.137 52.5594 201.177 53.6901C190.065 66.5251 178.814 79.24 167.427 91.8327L139.416 123.759C131.032 133.239 122.678 142.782 114.215 152.191C112.45 154.153 110.677 156.409 108.706 158.122C106.02 156.16 103.907 153.287 101.496 151.053C96.3093 146.248 91.7737 140.744 86.7547 135.825C82.8129 131.987 75.1157 124.306 71.8491 120.238C74.2596 117.893 83.847 107.003 85.8045 106.75C88.109 107.69 105.027 125.863 108.049 128.679C108.75 128.166 109.324 127.601 109.89 126.947C112.397 124.052 115.084 121.335 117.816 118.652L164.525 72.4716C170.16 66.7839 175.889 61.1895 181.709 55.691C183.918 53.5659 188.276 48.253 191.044 47.7415Z" fill="#3272F0"/>
<path d="M110.889 188.501C116.053 185.404 120.734 181.584 125.737 178.229C132.318 173.816 138.893 169.7 145.142 164.754C152.763 158.801 163.939 150.568 166.185 140.713C167.691 134.104 167.714 122.464 167.393 115.679C166.855 104.334 169.378 104.046 176.614 96.3588C178.018 94.8667 183.445 87.8464 185.1 87.3635L185.465 87.5353C185.528 88.0327 185.488 90.5299 185.502 91.322C185.608 96.9681 185.492 102.656 185.49 108.312V124.686C185.488 132.089 185.516 137.295 183.704 144.636C179.617 161.193 166.719 170.861 153.794 180.374C144.335 187.216 134.781 193.926 125.136 200.503C121.782 202.868 118.408 205.205 115.014 207.513C114.244 208.033 112.169 209.522 111.494 209.814C110.488 207.679 111.554 192.517 110.889 188.501Z" fill="#3272F0"/>
<path d="M101.333 28.0805C109.089 27.6287 119.158 28.0583 127.162 27.9765C146.53 27.7785 166.113 28.2176 185.474 27.932C185.03 42.3061 186.164 37.7622 175.752 48.1002C173.023 50.6333 170.177 53.6931 167.453 56.335L167.494 45.6442C166.312 45.7461 165.113 45.6084 163.966 45.7147C156.779 46.3081 149.566 46.0695 142.344 46.1148C136.194 46.1534 129.967 45.449 123.749 45.7285C119.083 45.9383 114.218 45.716 109.538 45.727C107.086 45.7327 103.866 45.8226 101.486 45.4801C100.577 44.827 100.829 41.9528 100.913 40.8808C101.04 39.2535 100.993 37.3037 101.096 35.7279C101.207 34.0455 100.544 29.2698 101.333 28.0805Z" fill="#191559"/>
<path d="M30.2435 13.1361C31.3304 10.8594 34.5711 10.8594 35.6581 13.1361L40.6757 23.6459C40.9715 24.2655 41.4709 24.7648 42.0905 25.0606L52.6003 30.0783C54.8769 31.1652 54.8769 34.4059 52.6003 35.4929L42.0905 40.5105C41.4709 40.8063 40.9715 41.3057 40.6757 41.9253L35.6581 52.4351C34.5711 54.7117 31.3304 54.7117 30.2435 52.4351L25.2258 41.9253C24.93 41.3057 24.4307 40.8063 23.8111 40.5105L13.3013 35.4929C11.0246 34.4059 11.0246 31.1652 13.3013 30.0783L23.8111 25.0606C24.4307 24.7648 24.93 24.2655 25.2258 23.6459L30.2435 13.1361Z" fill="#191559"/>
</svg>
